<?xml version="1.0" encoding="utf-8"?>
<!-- Generator: Adobe Illustrator 26.0.0, SVG Export Plug-In . SVG Version: 6.00 Build 0)  -->
<svg version="1.1" id="Layer_1" xmlns="http://www.w3.org/2000/svg" xmlns:xlink="http://www.w3.org/1999/xlink" x="0px" y="0px"
	 viewBox="0 0 350.2 341.58" style="enable-background:new 0 0 350.2 341.58;" xml:space="preserve">
<style type="text/css">
	.st0{fill:#FCFCFC;}
</style>
<path class="st0" d="M0,163.89c0.88-6.4,1.64-12.82,2.66-19.19c4.03-25.03,13.62-47.84,27.94-68.67
	C52.26,44.5,81.3,22.43,117.24,9.62c24.4-8.7,49.62-11.15,75.4-8.74c32.11,3.01,60.99,14.35,86.78,33.52
	c31.37,23.33,52.58,53.92,63.76,91.35c7.17,24.03,8.72,48.61,5.26,73.4c-6.82,48.9-31.09,87.59-70,117.33
	c-14.11,10.79-29.99,18.51-46.8,24.25c-7.71,2.64-12.94-1.06-12.97-9.19c-0.06-15.16,0.02-30.31-0.04-45.47
	c-0.03-7.55-0.45-15.12-3.74-22.05c-1.92-4.05-4.6-7.75-6.96-11.63c6.38-1.19,13.33-2.08,20.06-3.81
	c17.83-4.6,33.81-12.51,44.63-28.16c7.87-11.39,11.52-24.44,13.12-38.03c1.22-10.31,1.57-20.66-0.41-30.96
	c-2.21-11.45-7.14-21.56-14.8-30.31c-1.39-1.58-1.62-2.89-0.94-4.84c5.03-14.4,3.09-28.49-2.25-42.35c-0.33-0.85-1.77-1.66-2.79-1.8
	c-6.08-0.86-11.84,0.86-17.18,3.37c-8.83,4.16-17.36,8.95-26.11,13.29c-1.56,0.77-3.72,1.26-5.34,0.86
	c-27.29-6.82-54.53-6.83-81.82,0.03c-1.61,0.41-3.89-0.05-5.32-0.95C117.68,81.65,105.95,76,93.17,72.64
	c-0.22-0.06-0.43-0.14-0.66-0.19c-8.17-1.72-9.62-0.8-11.96,7.22c-3.64,12.44-4.29,24.83,0.06,37.27c0.35,1,0.03,2.75-0.67,3.54
	c-14.69,16.7-18.02,36.46-16.01,57.8c1.17,12.49,4.12,24.43,9.72,35.68c7.89,15.84,21.23,25.51,37.37,31.1
	c9.59,3.32,19.86,4.71,29.82,6.96c0.52,0.12,1.06,0.18,1.15,0.19c-2.55,4.63-5.18,9.21-7.58,13.9c-0.81,1.59-1.43,3.45-1.5,5.21
	c-0.15,3.69-2.08,5.36-5.43,6.26c-11.09,3-22.08,4.94-32.69-1.57c-5.57-3.42-9.71-8.2-12.99-13.78
	c-5.04-8.59-12.12-14.88-21.69-17.71c-3.54-1.05-7.58-0.76-11.36-0.54c-2.31,0.14-3.05,2.01-1.5,3.96c1.55,1.93,3.09,4.15,5.16,5.35
	c9.39,5.44,14.67,14.07,18.88,23.56c2.41,5.42,4.67,10.83,9.26,14.95c7.35,6.6,16.23,9.1,25.73,9.53
	c8.24,0.37,16.51,0.08,25.31,0.08c0,4.96-0.02,10.74,0.01,16.52c0.02,4.44,0.17,8.89,0.16,13.33c-0.02,8.2-5.42,12.16-13.18,9.52
	c-25.87-8.81-48.64-22.71-67.73-42.31c-18.51-19.01-32.65-40.83-41.37-66.03c-4.95-14.28-7.82-28.98-8.96-44.03
	c-0.1-1.34-0.35-2.67-0.54-4C0,177.57,0,170.73,0,163.89z"/>
</svg>
