<?xml version="1.0" encoding="utf-8"?>
<!-- Generator: Adobe Illustrator 26.0.0, SVG Export Plug-In . SVG Version: 6.00 Build 0)  -->
<svg version="1.1" xmlns="http://www.w3.org/2000/svg" xmlns:xlink="http://www.w3.org/1999/xlink" x="0px" y="0px"
	 viewBox="0 0 35 35" style="enable-background:new 0 0 35 35;" xml:space="preserve">
<style type="text/css">
	.st0{display:none;}
	.st1{display:inline;}
	.st2{fill:none;stroke:#FFFFFF;stroke-width:4;stroke-miterlimit:10;}
	.st3{fill:#FFFFFF;}
</style>
<g id="Layer_1" class="st0">
	<rect class="st1" width="35" height="35"/>
</g>
<g id="Layer_2">
	<g>
		<polyline class="st2" points="6.52,9.93 17.45,3 28.48,10 		"/>
		<polyline class="st2" points="6.52,25.07 17.45,32 28.48,25 		"/>
		<g>
			<path class="st3" d="M17.5,14.5c1.66,0,3,1.34,3,3c0,1.66-1.34,3-3,3c-1.66,0-3-1.34-3-3C14.5,15.84,15.84,14.5,17.5,14.5
				 M17.5,11.5c-3.31,0-6,2.69-6,6s2.69,6,6,6s6-2.69,6-6S20.81,11.5,17.5,11.5L17.5,11.5z"/>
		</g>
	</g>
</g>
</svg>
